<?xml version="1.0" encoding="UTF-8" standalone="no"?>
<!-- Created with Inkscape (http://www.inkscape.org/) -->

<svg
   xmlns:dc="http://purl.org/dc/elements/1.1/"
   xmlns:cc="http://creativecommons.org/ns#"
   xmlns:rdf="http://www.w3.org/1999/02/22-rdf-syntax-ns#"
   xmlns:svg="http://www.w3.org/2000/svg"
   xmlns="http://www.w3.org/2000/svg"
   xmlns:xlink="http://www.w3.org/1999/xlink"
   xmlns:sodipodi="http://sodipodi.sourceforge.net/DTD/sodipodi-0.dtd"
   xmlns:inkscape="http://www.inkscape.org/namespaces/inkscape"
   width="256"
   height="576"
   id="svg2"
   version="1.1"
   inkscape:version="0.48.1 "
   sodipodi:docname="MonochromePebbleIcons_Weather_Zephyris.svg"
   inkscape:export-filename="MonochromePebbleIcons_Weather_Zephyris.png"
   inkscape:export-xdpi="90"
   inkscape:export-ydpi="90">
  <defs
     id="defs4" />
  <sodipodi:namedview
     id="base"
     pagecolor="#ffffff"
     bordercolor="#666666"
     borderopacity="1.0"
     inkscape:pageopacity="0.0"
     inkscape:pageshadow="2"
     inkscape:zoom="0.70710678"
     inkscape:cx="5.0046921"
     inkscape:cy="275.38146"
     inkscape:document-units="px"
     inkscape:current-layer="layer1"
     showgrid="true"
     inkscape:window-width="1280"
     inkscape:window-height="962"
     inkscape:window-x="-8"
     inkscape:window-y="-8"
     inkscape:window-maximized="1">
    <inkscape:grid
       type="xygrid"
       id="grid2985"
       empspacing="2"
       visible="true"
       enabled="true"
       snapvisiblegridlinesonly="true" />
  </sodipodi:namedview>
  <metadata
     id="metadata7">
    <rdf:RDF>
      <cc:Work
         rdf:about="">
        <dc:format>image/svg+xml</dc:format>
        <dc:type
           rdf:resource="http://purl.org/dc/dcmitype/StillImage" />
        <dc:title></dc:title>
      </cc:Work>
    </rdf:RDF>
  </metadata>
  <g
     inkscape:label="Layer 1"
     inkscape:groupmode="layer"
     id="layer1"
     transform="translate(0,-476.36215)">
    <use
       x="0"
       y="0"
       xlink:href="#use4215"
       id="use4221"
       transform="translate(128,64.000002)"
       width="256"
       height="256" />
    <use
       x="0"
       y="0"
       xlink:href="#use4213"
       id="use4223"
       transform="translate(64,64.000002)"
       width="256"
       height="256" />
    <use
       x="0"
       y="0"
       xlink:href="#use4215"
       id="use4217"
       transform="translate(0,64.000002)"
       width="256"
       height="256" />
    <use
       x="0"
       y="0"
       xlink:href="#use4213"
       id="use4215"
       transform="translate(-64,64.000002)"
       width="256"
       height="256" />
    <use
       x="0"
       y="0"
       xlink:href="#rect2987"
       id="use4213"
       transform="translate(64,3.1582031e-5)"
       width="256"
       height="256" />
    <rect
       style="color:#000000;fill:#000000;fill-opacity:1;fill-rule:evenodd;stroke:none;stroke-width:10;marker:none;visibility:visible;display:inline;overflow:visible;enable-background:accumulate"
       id="rect2987"
       width="64"
       height="64"
       x="0"
       y="476.36215" />
    <g
       id="g4185"
       transform="translate(0,-319.99997)">
      <path
         inkscape:transform-center-y="1.3524018"
         inkscape:transform-center-x="1.3523988"
         transform="matrix(0.85928456,0,0,0.85928456,4.7243612,800.64358)"
         d="m 32.000001,2 6.952881,8.601228 10.680676,-2.8717374 0.569324,11.0453404 10.328814,3.95466 L 54.5,31.999999 60.531695,41.270511 50.202883,45.225167 49.633557,56.27051 38.952883,53.398771 31.999999,62 25.047118,53.398772 14.366442,56.270509 13.797118,45.225169 3.4683043,41.270509 9.5,32.000001 3.4683048,22.729489 13.797117,18.774833 14.366443,7.7294897 25.047117,10.601229 z"
         inkscape:randomized="0"
         inkscape:rounded="0"
         inkscape:flatsided="false"
         sodipodi:arg2="-1.2566371"
         sodipodi:arg1="-1.5707963"
         sodipodi:r2="22.5"
         sodipodi:r1="30"
         sodipodi:cy="32"
         sodipodi:cx="32"
         sodipodi:sides="10"
         id="path2995"
         style="color:#000000;fill:#ffffff;fill-opacity:1;fill-rule:evenodd;stroke:none;stroke-width:10;marker:none;visibility:visible;display:inline;overflow:visible;enable-background:accumulate"
         sodipodi:type="star" />
      <path
         transform="matrix(1.3333333,0,0,1.3333333,-10.666667,785.69548)"
         d="m 44,32 c 0,6.627417 -5.372583,12 -12,12 -6.627417,0 -12,-5.372583 -12,-12 0,-6.627417 5.372583,-12 12,-12 6.627417,0 12,5.372583 12,12 z"
         sodipodi:ry="12"
         sodipodi:rx="12"
         sodipodi:cy="32"
         sodipodi:cx="32"
         id="path3767"
         style="color:#000000;fill:#000000;fill-opacity:1;fill-rule:evenodd;stroke:none;stroke-width:10;marker:none;visibility:visible;display:inline;overflow:visible;enable-background:accumulate"
         sodipodi:type="arc" />
      <path
         transform="matrix(1.1666667,0,0,1.1666667,-5.3333348,791.02881)"
         d="m 44,32 c 0,6.627417 -5.372583,12 -12,12 -6.627417,0 -12,-5.372583 -12,-12 0,-6.627417 5.372583,-12 12,-12 6.627417,0 12,5.372583 12,12 z"
         sodipodi:ry="12"
         sodipodi:rx="12"
         sodipodi:cy="32"
         sodipodi:cx="32"
         id="path3767-4"
         style="color:#000000;fill:#ffffff;fill-opacity:1;fill-rule:evenodd;stroke:none;stroke-width:10;marker:none;visibility:visible;display:inline;overflow:visible;enable-background:accumulate"
         sodipodi:type="arc" />
    </g>
    <g
       id="g4190"
       transform="translate(0,-319.99997)">
      <path
         transform="matrix(73.199921,0,0,1.2000003,-6949.1928,771.96214)"
         d="m 96.491805,47 c 0,8.284271 -0.110094,15 -0.245902,15 -0.135808,0 -0.245902,-6.715729 -0.245902,-15 0,-8.284271 0.110094,-15 0.245902,-15 0.135808,0 0.245902,6.715729 0.245902,15 z"
         sodipodi:ry="15"
         sodipodi:rx="0.24590164"
         sodipodi:cy="47"
         sodipodi:cx="96.245903"
         id="path3829"
         style="color:#000000;fill:#ffffff;fill-opacity:1;fill-rule:evenodd;stroke:none;stroke-width:10;marker:none;visibility:visible;display:inline;overflow:visible;enable-background:accumulate"
         sodipodi:type="arc" />
      <path
         transform="matrix(65.066597,0,0,1.0666669,-6158.3934,772.22881)"
         d="m 96.491805,47 c 0,8.284271 -0.110094,15 -0.245902,15 -0.135808,0 -0.245902,-6.715729 -0.245902,-15 0,-8.284271 0.110094,-15 0.245902,-15 0.135808,0 0.245902,6.715729 0.245902,15 z"
         sodipodi:ry="15"
         sodipodi:rx="0.24590164"
         sodipodi:cy="47"
         sodipodi:cx="96.245903"
         id="path3829-9"
         style="color:#000000;fill:#000000;fill-opacity:1;fill-rule:evenodd;stroke:none;stroke-width:10;marker:none;visibility:visible;display:inline;overflow:visible;enable-background:accumulate"
         sodipodi:type="arc" />
    </g>
    <g
       id="g4194"
       transform="translate(-128,-255.99997)">
      <path
         sodipodi:nodetypes="ccccc"
         inkscape:connector-curvature="0"
         id="path3934-66"
         d="m 145,848.36215 35,0 0,-12 -28,-8 z"
         style="fill:#000000;stroke:none" />
      <path
         d="m 154,34 c 0,5.522847 -4.47715,10 -10,10 -5.52285,0 -10,-4.477153 -10,-10 0,-5.522847 4.47715,-10 10,-10 5.52285,0 10,4.477153 10,10 z"
         sodipodi:ry="10"
         sodipodi:rx="10"
         sodipodi:cy="34"
         sodipodi:cx="144"
         id="path3878-1-5-3-6"
         style="color:#000000;fill:#000000;stroke:none;stroke-width:1;marker:none;visibility:visible;display:inline;overflow:visible;enable-background:accumulate"
         sodipodi:type="arc"
         transform="matrix(0.9,0,0,0.9,50.4,808.76215)" />
      <path
         d="m 154,34 c 0,5.522847 -4.47715,10 -10,10 -5.52285,0 -10,-4.477153 -10,-10 0,-5.522847 4.47715,-10 10,-10 5.52285,0 10,4.477153 10,10 z"
         sodipodi:ry="10"
         sodipodi:rx="10"
         sodipodi:cy="34"
         sodipodi:cx="144"
         id="path3878-1-6"
         style="color:#000000;fill:#000000;stroke:none;stroke-width:1;marker:none;visibility:visible;display:inline;overflow:visible;enable-background:accumulate"
         sodipodi:type="arc"
         transform="matrix(1.4,0,0,1.4,-33.6,782.76215)" />
      <path
         d="m 154,34 c 0,5.522847 -4.47715,10 -10,10 -5.52285,0 -10,-4.477153 -10,-10 0,-5.522847 4.47715,-10 10,-10 5.52285,0 10,4.477153 10,10 z"
         sodipodi:ry="10"
         sodipodi:rx="10"
         sodipodi:cy="34"
         sodipodi:cx="144"
         id="path3878-1-5-7"
         style="color:#000000;fill:#000000;stroke:none;stroke-width:1;marker:none;visibility:visible;display:inline;overflow:visible;enable-background:accumulate"
         sodipodi:type="arc"
         transform="matrix(0.8,0,0,0.8,36.8,801.16215)" />
      <path
         transform="matrix(1.1,0,0,1.1,-13.4,799.96215)"
         d="m 154,34 c 0,5.522847 -4.47715,10 -10,10 -5.52285,0 -10,-4.477153 -10,-10 0,-5.522847 4.47715,-10 10,-10 5.52285,0 10,4.477153 10,10 z"
         sodipodi:ry="10"
         sodipodi:rx="10"
         sodipodi:cy="34"
         sodipodi:cx="144"
         id="path3878-5"
         style="color:#000000;fill:#000000;stroke:none;stroke-width:1;marker:none;visibility:visible;display:inline;overflow:visible;enable-background:accumulate"
         sodipodi:type="arc" />
      <path
         transform="matrix(0.9,0,0,0.9,15.4,806.76215)"
         d="m 154,34 c 0,5.522847 -4.47715,10 -10,10 -5.52285,0 -10,-4.477153 -10,-10 0,-5.522847 4.47715,-10 10,-10 5.52285,0 10,4.477153 10,10 z"
         sodipodi:ry="10"
         sodipodi:rx="10"
         sodipodi:cy="34"
         sodipodi:cx="144"
         id="path3878"
         style="color:#000000;fill:#ffffff;stroke:none;stroke-width:1;marker:none;visibility:visible;display:inline;overflow:visible;enable-background:accumulate"
         sodipodi:type="arc" />
      <path
         d="m 154,34 c 0,5.522847 -4.47715,10 -10,10 -5.52285,0 -10,-4.477153 -10,-10 0,-5.522847 4.47715,-10 10,-10 5.52285,0 10,4.477153 10,10 z"
         sodipodi:ry="10"
         sodipodi:rx="10"
         sodipodi:cy="34"
         sodipodi:cx="144"
         id="path3878-1"
         style="color:#000000;fill:#ffffff;stroke:none;stroke-width:1;marker:none;visibility:visible;display:inline;overflow:visible;enable-background:accumulate"
         sodipodi:type="arc"
         transform="matrix(1.2,0,0,1.2,-4.8,789.56215)" />
      <path
         d="m 154,34 c 0,5.522847 -4.47715,10 -10,10 -5.52285,0 -10,-4.477153 -10,-10 0,-5.522847 4.47715,-10 10,-10 5.52285,0 10,4.477153 10,10 z"
         sodipodi:ry="10"
         sodipodi:rx="10"
         sodipodi:cy="34"
         sodipodi:cx="144"
         id="path3878-1-5"
         style="color:#000000;fill:#ffffff;stroke:none;stroke-width:1;marker:none;visibility:visible;display:inline;overflow:visible;enable-background:accumulate"
         sodipodi:type="arc"
         transform="matrix(0.6,0,0,0.6,65.6,807.96215)" />
      <path
         d="m 154,34 c 0,5.522847 -4.47715,10 -10,10 -5.52285,0 -10,-4.477153 -10,-10 0,-5.522847 4.47715,-10 10,-10 5.52285,0 10,4.477153 10,10 z"
         sodipodi:ry="10"
         sodipodi:rx="10"
         sodipodi:cy="34"
         sodipodi:cx="144"
         id="path3878-1-5-3"
         style="color:#000000;fill:#ffffff;stroke:none;stroke-width:1;marker:none;visibility:visible;display:inline;overflow:visible;enable-background:accumulate"
         sodipodi:type="arc"
         transform="matrix(0.7,0,0,0.7,79.2,815.56215)" />
      <path
         sodipodi:nodetypes="ccccc"
         inkscape:connector-curvature="0"
         id="path3934"
         d="m 145,846.36215 35,0 0,-10 -28,-8 z"
         style="fill:#ffffff;stroke:none" />
    </g>
    <g
       id="g4201"
       transform="translate(-192,-191.99997)">
      <path
         sodipodi:nodetypes="ccccc"
         inkscape:connector-curvature="0"
         id="path3934-6-0"
         d="m 209,848.36215 35,0 0,-12 -28,-8 z"
         style="fill:#000000;fill-opacity:1;stroke:none" />
      <path
         d="m 154,34 c 0,5.522847 -4.47715,10 -10,10 -5.52285,0 -10,-4.477153 -10,-10 0,-5.522847 4.47715,-10 10,-10 5.52285,0 10,4.477153 10,10 z"
         sodipodi:ry="10"
         sodipodi:rx="10"
         sodipodi:cy="34"
         sodipodi:cx="144"
         id="path3878-1-5-3-5-9-9"
         style="color:#000000;fill:#000000;stroke:none;stroke-width:1;marker:none;visibility:visible;display:inline;overflow:visible;enable-background:accumulate"
         sodipodi:type="arc"
         transform="matrix(0.8000064,0,0,0.8000064,128.79908,812.162)" />
      <path
         d="m 154,34 c 0,5.522847 -4.47715,10 -10,10 -5.52285,0 -10,-4.477153 -10,-10 0,-5.522847 4.47715,-10 10,-10 5.52285,0 10,4.477153 10,10 z"
         sodipodi:ry="10"
         sodipodi:rx="10"
         sodipodi:cy="34"
         sodipodi:cx="144"
         id="path3878-1-3-0-2"
         style="color:#000000;fill:#000000;stroke:none;stroke-width:1;marker:none;visibility:visible;display:inline;overflow:visible;enable-background:accumulate"
         sodipodi:type="arc"
         transform="matrix(1.4,0,0,1.4,30.4,782.76221)" />
      <path
         d="m 154,34 c 0,5.522847 -4.47715,10 -10,10 -5.52285,0 -10,-4.477153 -10,-10 0,-5.522847 4.47715,-10 10,-10 5.52285,0 10,4.477153 10,10 z"
         sodipodi:ry="10"
         sodipodi:rx="10"
         sodipodi:cy="34"
         sodipodi:cx="144"
         id="path3878-1-5-8-7-6"
         style="color:#000000;fill:#000000;stroke:none;stroke-width:1;marker:none;visibility:visible;display:inline;overflow:visible;enable-background:accumulate"
         sodipodi:type="arc"
         transform="matrix(0.8,0,0,0.8,100.8,801.16221)" />
      <path
         transform="matrix(1.1,0,0,1.1,50.6,799.96221)"
         d="m 154,34 c 0,5.522847 -4.47715,10 -10,10 -5.52285,0 -10,-4.477153 -10,-10 0,-5.522847 4.47715,-10 10,-10 5.52285,0 10,4.477153 10,10 z"
         sodipodi:ry="10"
         sodipodi:rx="10"
         sodipodi:cy="34"
         sodipodi:cx="144"
         id="path3878-6-8-3"
         style="color:#000000;fill:#000000;stroke:none;stroke-width:1;marker:none;visibility:visible;display:inline;overflow:visible;enable-background:accumulate"
         sodipodi:type="arc" />
      <path
         transform="matrix(0.9,0,0,0.9,79.4,806.76221)"
         d="m 154,34 c 0,5.522847 -4.47715,10 -10,10 -5.52285,0 -10,-4.477153 -10,-10 0,-5.522847 4.47715,-10 10,-10 5.52285,0 10,4.477153 10,10 z"
         sodipodi:ry="10"
         sodipodi:rx="10"
         sodipodi:cy="34"
         sodipodi:cx="144"
         id="path3878-6"
         style="color:#000000;fill:#ffffff;stroke:none;stroke-width:1;marker:none;visibility:visible;display:inline;overflow:visible;enable-background:accumulate"
         sodipodi:type="arc" />
      <path
         d="m 154,34 c 0,5.522847 -4.47715,10 -10,10 -5.52285,0 -10,-4.477153 -10,-10 0,-5.522847 4.47715,-10 10,-10 5.52285,0 10,4.477153 10,10 z"
         sodipodi:ry="10"
         sodipodi:rx="10"
         sodipodi:cy="34"
         sodipodi:cx="144"
         id="path3878-1-3"
         style="color:#000000;fill:#ffffff;stroke:none;stroke-width:1;marker:none;visibility:visible;display:inline;overflow:visible;enable-background:accumulate"
         sodipodi:type="arc"
         transform="matrix(1.2,0,0,1.2,59.2,789.56221)" />
      <path
         d="m 154,34 c 0,5.522847 -4.47715,10 -10,10 -5.52285,0 -10,-4.477153 -10,-10 0,-5.522847 4.47715,-10 10,-10 5.52285,0 10,4.477153 10,10 z"
         sodipodi:ry="10"
         sodipodi:rx="10"
         sodipodi:cy="34"
         sodipodi:cx="144"
         id="path3878-1-5-8"
         style="color:#000000;fill:#ffffff;stroke:none;stroke-width:1;marker:none;visibility:visible;display:inline;overflow:visible;enable-background:accumulate"
         sodipodi:type="arc"
         transform="matrix(0.6,0,0,0.6,129.6,807.96221)" />
      <path
         d="m 154,34 c 0,5.522847 -4.47715,10 -10,10 -5.52285,0 -10,-4.477153 -10,-10 0,-5.522847 4.47715,-10 10,-10 5.52285,0 10,4.477153 10,10 z"
         sodipodi:ry="10"
         sodipodi:rx="10"
         sodipodi:cy="34"
         sodipodi:cx="144"
         id="path3878-1-5-3-5"
         style="color:#000000;fill:#ffffff;stroke:none;stroke-width:1;marker:none;visibility:visible;display:inline;overflow:visible;enable-background:accumulate"
         sodipodi:type="arc"
         transform="matrix(0.7,0,0,0.7,143.2,815.56221)" />
      <path
         sodipodi:nodetypes="ccccc"
         inkscape:connector-curvature="0"
         id="path3934-6"
         d="m 209,846.36215 35,0 0,-10 -28,-8 z"
         style="fill:#ffffff;fill-opacity:1;stroke:none" />
      <path
         sodipodi:nodetypes="ccccccccc"
         inkscape:connector-curvature="0"
         id="path3934-5"
         d="m 209,844.36215 35,0 -1,-9 -2,-2 -18,-5 -3,0 -7,1 -3,3 z"
         style="fill:#000000;stroke:none" />
      <path
         transform="matrix(0.7,0,0,0.7,108.2,813.56221)"
         d="m 154,34 c 0,5.522847 -4.47715,10 -10,10 -5.52285,0 -10,-4.477153 -10,-10 0,-5.522847 4.47715,-10 10,-10 5.52285,0 10,4.477153 10,10 z"
         sodipodi:ry="10"
         sodipodi:rx="10"
         sodipodi:cy="34"
         sodipodi:cx="144"
         id="path3878-6-8"
         style="color:#000000;fill:#000000;stroke:none;stroke-width:1;marker:none;visibility:visible;display:inline;overflow:visible;enable-background:accumulate"
         sodipodi:type="arc" />
      <path
         d="m 154,34 c 0,5.522847 -4.47715,10 -10,10 -5.52285,0 -10,-4.477153 -10,-10 0,-5.522847 4.47715,-10 10,-10 5.52285,0 10,4.477153 10,10 z"
         sodipodi:ry="10"
         sodipodi:rx="10"
         sodipodi:cy="34"
         sodipodi:cx="144"
         id="path3878-1-3-0"
         style="color:#000000;fill:#000000;stroke:none;stroke-width:1;marker:none;visibility:visible;display:inline;overflow:visible;enable-background:accumulate"
         sodipodi:type="arc"
         transform="translate(88,796.36221)" />
      <path
         d="m 154,34 c 0,5.522847 -4.47715,10 -10,10 -5.52285,0 -10,-4.477153 -10,-10 0,-5.522847 4.47715,-10 10,-10 5.52285,0 10,4.477153 10,10 z"
         sodipodi:ry="10"
         sodipodi:rx="10"
         sodipodi:cy="34"
         sodipodi:cx="144"
         id="path3878-1-5-8-7"
         style="color:#000000;fill:#000000;stroke:none;stroke-width:1;marker:none;visibility:visible;display:inline;overflow:visible;enable-background:accumulate"
         sodipodi:type="arc"
         transform="matrix(0.4,0,0,0.4,158.4,814.76221)" />
      <path
         d="m 154,34 c 0,5.522847 -4.47715,10 -10,10 -5.52285,0 -10,-4.477153 -10,-10 0,-5.522847 4.47715,-10 10,-10 5.52285,0 10,4.477153 10,10 z"
         sodipodi:ry="10"
         sodipodi:rx="10"
         sodipodi:cy="34"
         sodipodi:cx="144"
         id="path3878-1-5-3-5-9"
         style="color:#000000;fill:#000000;stroke:none;stroke-width:1;marker:none;visibility:visible;display:inline;overflow:visible;enable-background:accumulate"
         sodipodi:type="arc"
         transform="matrix(0.500006,0,0,0.500006,171.99914,822.36201)" />
    </g>
    <g
       id="g4225"
       transform="translate(102,-321.99997)">
      <path
         inkscape:transform-center-y="0.67619794"
         inkscape:transform-center-x="0.67619912"
         transform="matrix(0.42964228,0,0,0.42964228,33.362181,870.50286)"
         d="m 32.000001,2 6.952881,8.601228 10.680676,-2.8717374 0.569324,11.0453404 10.328814,3.95466 L 54.5,31.999999 60.531695,41.270511 50.202883,45.225167 49.633557,56.27051 38.952883,53.398771 31.999999,62 25.047118,53.398772 14.366442,56.270509 13.797118,45.225169 3.4683043,41.270509 9.5,32.000001 3.4683048,22.729489 13.797117,18.774833 14.366443,7.7294897 25.047117,10.601229 z"
         inkscape:randomized="0"
         inkscape:rounded="0"
         inkscape:flatsided="false"
         sodipodi:arg2="-1.2566371"
         sodipodi:arg1="-1.5707963"
         sodipodi:r2="22.5"
         sodipodi:r1="30"
         sodipodi:cy="32"
         sodipodi:cx="32"
         sodipodi:sides="10"
         id="path2995-5"
         style="color:#000000;fill:#ffffff;fill-opacity:1;fill-rule:evenodd;stroke:none;stroke-width:10;marker:none;visibility:visible;display:inline;overflow:visible;enable-background:accumulate"
         sodipodi:type="star" />
      <path
         transform="matrix(0.66666665,0,0,0.66666665,25.666667,863.02881)"
         d="m 44,32 c 0,6.627417 -5.372583,12 -12,12 -6.627417,0 -12,-5.372583 -12,-12 0,-6.627417 5.372583,-12 12,-12 6.627417,0 12,5.372583 12,12 z"
         sodipodi:ry="12"
         sodipodi:rx="12"
         sodipodi:cy="32"
         sodipodi:cx="32"
         id="path3767-0"
         style="color:#000000;fill:#000000;fill-opacity:1;fill-rule:evenodd;stroke:none;stroke-width:10;marker:none;visibility:visible;display:inline;overflow:visible;enable-background:accumulate"
         sodipodi:type="arc" />
      <path
         transform="matrix(0.50000002,0,0,0.50000055,31,868.36213)"
         d="m 44,32 c 0,6.627417 -5.372583,12 -12,12 -6.627417,0 -12,-5.372583 -12,-12 0,-6.627417 5.372583,-12 12,-12 6.627417,0 12,5.372583 12,12 z"
         sodipodi:ry="12"
         sodipodi:rx="12"
         sodipodi:cy="32"
         sodipodi:cx="32"
         id="path3767-4-3"
         style="color:#000000;fill:#ffffff;fill-opacity:1;fill-rule:evenodd;stroke:none;stroke-width:10;marker:none;visibility:visible;display:inline;overflow:visible;enable-background:accumulate"
         sodipodi:type="arc" />
    </g>
    <use
       x="0"
       y="0"
       xlink:href="#g4194"
       id="use4238"
       transform="translate(128,-1.5820313e-6)"
       width="256"
       height="256" />
    <use
       x="0"
       y="0"
       xlink:href="#g4225"
       id="use4244"
       transform="translate(0,63.999998)"
       width="256"
       height="256" />
    <use
       x="0"
       y="0"
       xlink:href="#g4201"
       id="use4240"
       transform="translate(128,-1.5820313e-6)"
       width="256"
       height="256" />
    <use
       x="0"
       y="0"
       xlink:href="#use4221"
       id="use4246"
       transform="translate(64,-1.5820313e-6)"
       width="256"
       height="256" />
    <g
       id="use4248"
       transform="matrix(0.5,0,0,0.5,164.00015,209.1811)">
      <path
         sodipodi:type="arc"
         style="color:#000000;fill:#ffffff;fill-opacity:1;fill-rule:evenodd;stroke:none;stroke-width:10;marker:none;visibility:visible;display:inline;overflow:visible;enable-background:accumulate"
         id="path4256"
         sodipodi:cx="96.245903"
         sodipodi:cy="47"
         sodipodi:rx="0.24590164"
         sodipodi:ry="15"
         d="m 96.491805,47 c 0,8.284271 -0.110094,15 -0.245902,15 -0.135808,0 -0.245902,-6.715729 -0.245902,-15 0,-8.284271 0.110094,-15 0.245902,-15 0.135808,0 0.245902,6.715729 0.245902,15 z"
         transform="matrix(73.199921,0,0,1.2000003,-6949.1928,771.96214)" />
      <path
         sodipodi:type="arc"
         style="color:#000000;fill:#000000;fill-opacity:1;fill-rule:evenodd;stroke:none;stroke-width:10;marker:none;visibility:visible;display:inline;overflow:visible;enable-background:accumulate"
         id="path4258"
         sodipodi:cx="96.245903"
         sodipodi:cy="47"
         sodipodi:rx="0.24590164"
         sodipodi:ry="15"
         d="m 96.491805,47 c 0,8.284271 -0.110094,15 -0.245902,15 -0.135808,0 -0.245902,-6.715729 -0.245902,-15 0,-8.284271 0.110094,-15 0.245902,-15 0.135808,0 0.245902,6.715729 0.245902,15 z"
         transform="matrix(65.066597,0,0,1.0666669,-6158.3934,772.22881)" />
    </g>
    <use
       x="0"
       y="0"
       xlink:href="#use4246"
       id="use4250"
       transform="translate(0,-64.000002)"
       width="256"
       height="256" />
    <use
       x="0"
       y="0"
       xlink:href="#use4248"
       id="use4252"
       transform="translate(0,-64.000002)"
       width="256"
       height="256" />
    <use
       x="0"
       y="0"
       xlink:href="#use4238"
       id="use4262"
       transform="translate(64,-1.5820313e-6)"
       width="256"
       height="256" />
    <use
       x="0"
       y="0"
       xlink:href="#use4240"
       id="use4264"
       transform="translate(64,-1.5820313e-6)"
       width="256"
       height="256" />
    <use
       x="0"
       y="0"
       xlink:href="#use4217"
       id="use4395"
       transform="translate(64,-1.5820313e-6)"
       width="256"
       height="256" />
    <use
       x="0"
       y="0"
       xlink:href="#use4401"
       id="use4405"
       transform="translate(8,-11.999998)"
       width="256"
       height="256" />
    <use
       x="0"
       y="0"
       xlink:href="#use4215"
       id="use4397"
       transform="translate(64,-1.5820313e-6)"
       width="256"
       height="256" />
    <use
       x="0"
       y="0"
       xlink:href="#use4399"
       id="use4403"
       transform="translate(8,-11.999998)"
       width="256"
       height="256" />
    <use
       x="0"
       y="0"
       xlink:href="#g4194"
       id="use4399"
       transform="translate(58,-1.5820313e-6)"
       width="256"
       height="256" />
    <use
       x="0"
       y="0"
       xlink:href="#g4201"
       id="use4401"
       transform="translate(58,-1.5820313e-6)"
       width="256"
       height="256" />
    <use
       x="0"
       y="0"
       xlink:href="#use4221"
       id="use4469"
       transform="translate(0,128)"
       width="256"
       height="256" />
    <use
       x="0"
       y="0"
       xlink:href="#use4223"
       id="use4471"
       transform="translate(0,128)"
       width="256"
       height="256" />
    <use
       x="0"
       y="0"
       xlink:href="#use4217"
       id="use4473"
       transform="translate(0,128)"
       width="256"
       height="256" />
    <use
       x="0"
       y="0"
       xlink:href="#use4215"
       id="use4475"
       transform="translate(0,128)"
       width="256"
       height="256" />
    <use
       x="0"
       y="0"
       xlink:href="#g4194"
       id="use4477"
       transform="translate(0,128)"
       width="256"
       height="256" />
    <use
       x="0"
       y="0"
       xlink:href="#g4201"
       id="use4479"
       transform="translate(0,128)"
       width="256"
       height="256" />
    <use
       x="0"
       y="0"
       xlink:href="#g4225"
       id="use4481"
       transform="translate(0,128)"
       width="256"
       height="256" />
    <use
       x="0"
       y="0"
       xlink:href="#use4238"
       id="use4483"
       transform="translate(0,128)"
       width="256"
       height="256" />
    <use
       x="0"
       y="0"
       xlink:href="#use4244"
       id="use4485"
       transform="translate(0,128)"
       width="256"
       height="256" />
    <use
       x="0"
       y="0"
       xlink:href="#use4240"
       id="use4487"
       transform="translate(0,128)"
       width="256"
       height="256" />
    <use
       x="0"
       y="0"
       xlink:href="#use4246"
       id="use4489"
       transform="translate(0,128)"
       width="256"
       height="256" />
    <use
       x="0"
       y="0"
       xlink:href="#use4248"
       id="use4491"
       transform="translate(0,128)"
       width="256"
       height="256" />
    <use
       x="0"
       y="0"
       xlink:href="#use4250"
       id="use4493"
       transform="translate(0,128)"
       width="256"
       height="256" />
    <use
       x="0"
       y="0"
       xlink:href="#use4252"
       id="use4495"
       transform="translate(0,128)"
       width="256"
       height="256" />
    <use
       x="0"
       y="0"
       xlink:href="#use4262"
       id="use4497"
       transform="translate(0,128)"
       width="256"
       height="256" />
    <use
       x="0"
       y="0"
       xlink:href="#use4264"
       id="use4499"
       transform="translate(0,128)"
       width="256"
       height="256" />
    <use
       x="0"
       y="0"
       xlink:href="#use4395"
       id="use4501"
       transform="translate(0,128)"
       width="256"
       height="256" />
    <use
       x="0"
       y="0"
       xlink:href="#use4405"
       id="use4503"
       transform="translate(0,128)"
       width="256"
       height="256" />
    <use
       x="0"
       y="0"
       xlink:href="#use4397"
       id="use4505"
       transform="translate(0,128)"
       width="256"
       height="256" />
    <use
       x="0"
       y="0"
       xlink:href="#use4403"
       id="use4507"
       transform="translate(0,128)"
       width="256"
       height="256" />
    <use
       x="0"
       y="0"
       xlink:href="#use4399"
       id="use4509"
       transform="translate(0,128)"
       width="256"
       height="256" />
    <use
       x="0"
       y="0"
       xlink:href="#use4401"
       id="use4511"
       transform="translate(0,128)"
       width="256"
       height="256" />
    <g
       id="g4533"
       transform="matrix(0.96592583,-0.25881905,0.25881905,0.96592583,-269.46567,-268.28331)">
      <path
         sodipodi:nodetypes="sssssssss"
         inkscape:connector-curvature="0"
         id="path4513"
         d="m 31,1020.3621 c 0,1 8e-5,3 -2,7.0001 -1,2 -2,4 -2,6 0,3 3,6 6,6 3,0 6,-3 6,-6 0,-2 -1,-4 -2,-6 -2.00006,-4 -2,-6.0001 -2,-7.0001 0,-1 -1,-2 -2,-2 -1,0 -2,1 -2,2 z"
         style="fill:#000000;stroke:none" />
      <path
         sodipodi:nodetypes="csssssc"
         inkscape:connector-curvature="0"
         id="path4513-3"
         d="m 33,1021.3621 c 0,0 0,2 -2,6.0001 -1.264898,2.5298 -2,4 -2,6 0,2 2,4 4,4 2,0 4,-2 4,-4 0,-2 -1.105573,-4.2112 -2,-6 -2,-4.0001 -2,-6.0001 -2,-6.0001 z"
         style="fill:#ffffff;stroke:none" />
    </g>
    <use
       x="0"
       y="0"
       xlink:href="#g4533"
       id="use4550"
       transform="translate(12.272591,4.0705484)"
       width="256"
       height="256" />
    <use
       x="0"
       y="0"
       xlink:href="#g4533"
       id="use4554"
       transform="translate(64,-1.5820313e-6)"
       width="256"
       height="256" />
    <use
       x="0"
       y="0"
       xlink:href="#use4550"
       id="use4556"
       transform="translate(64,-1.5820313e-6)"
       width="256"
       height="256" />
    <use
       x="0"
       y="0"
       xlink:href="#use4554"
       id="use4560"
       transform="translate(64,-1.5820313e-6)"
       width="256"
       height="256" />
    <use
       x="0"
       y="0"
       xlink:href="#use4556"
       id="use4562"
       transform="translate(64,-1.5820313e-6)"
       width="256"
       height="256" />
    <use
       x="0"
       y="0"
       xlink:href="#use4560"
       id="use4566"
       transform="translate(64,-1.5820313e-6)"
       width="256"
       height="256" />
    <use
       x="0"
       y="0"
       xlink:href="#use4562"
       id="use4568"
       transform="translate(64,-1.5820313e-6)"
       width="256"
       height="256" />
    <use
       x="0"
       y="0"
       xlink:href="#use4566"
       id="use4572"
       transform="translate(-192,63.999998)"
       width="256"
       height="256" />
    <use
       x="0"
       y="0"
       xlink:href="#use4568"
       id="use4574"
       transform="translate(-192,63.999998)"
       width="256"
       height="256" />
    <use
       x="0"
       y="0"
       xlink:href="#use4572"
       id="use4578"
       transform="translate(64,-1.5820313e-6)"
       width="256"
       height="256" />
    <use
       x="0"
       y="0"
       xlink:href="#use4574"
       id="use4580"
       transform="translate(64,-1.5820313e-6)"
       width="256"
       height="256" />
    <use
       x="0"
       y="0"
       xlink:href="#use4578"
       id="use4584"
       transform="translate(64,-1.5820313e-6)"
       width="256"
       height="256" />
    <use
       x="0"
       y="0"
       xlink:href="#use4580"
       id="use4586"
       transform="translate(64,-1.5820313e-6)"
       width="256"
       height="256" />
    <use
       x="0"
       y="0"
       xlink:href="#use4584"
       id="use4590"
       transform="translate(64,-1.5820313e-6)"
       width="256"
       height="256" />
    <use
       x="0"
       y="0"
       xlink:href="#use4586"
       id="use4592"
       transform="translate(64,-1.5820313e-6)"
       width="256"
       height="256" />
    <use
       x="0"
       y="0"
       xlink:href="#rect2987"
       id="use4598"
       transform="translate(128,2.8417969e-5)"
       width="256"
       height="256" />
    <use
       x="0"
       y="0"
       xlink:href="#use4598"
       id="use4600"
       transform="translate(64,-1.5820313e-6)"
       width="256"
       height="256" />
    <use
       x="0"
       y="0"
       xlink:href="#use4469"
       id="use4602"
       transform="translate(0,128)"
       width="256"
       height="256" />
    <use
       x="0"
       y="0"
       xlink:href="#use4471"
       id="use4604"
       transform="translate(0,128)"
       width="256"
       height="256" />
    <use
       x="0"
       y="0"
       xlink:href="#use4473"
       id="use4606"
       transform="translate(0,128)"
       width="256"
       height="256" />
    <use
       x="0"
       y="0"
       xlink:href="#use4475"
       id="use4608"
       transform="translate(0,128)"
       width="256"
       height="256" />
    <use
       x="0"
       y="0"
       xlink:href="#use4477"
       id="use4610"
       transform="translate(0,128)"
       width="256"
       height="256" />
    <use
       x="0"
       y="0"
       xlink:href="#use4479"
       id="use4612"
       transform="translate(0,128)"
       width="256"
       height="256" />
    <use
       x="0"
       y="0"
       xlink:href="#use4481"
       id="use4614"
       transform="translate(0,128)"
       width="256"
       height="256" />
    <use
       x="0"
       y="0"
       xlink:href="#use4483"
       id="use4616"
       transform="translate(0,128)"
       width="256"
       height="256" />
    <use
       x="0"
       y="0"
       xlink:href="#use4485"
       id="use4618"
       transform="translate(0,128)"
       width="256"
       height="256" />
    <use
       x="0"
       y="0"
       xlink:href="#use4487"
       id="use4620"
       transform="translate(0,128)"
       width="256"
       height="256" />
    <use
       x="0"
       y="0"
       xlink:href="#use4489"
       id="use4622"
       transform="translate(0,128)"
       width="256"
       height="256" />
    <use
       x="0"
       y="0"
       xlink:href="#use4491"
       id="use4624"
       transform="translate(0,128)"
       width="256"
       height="256" />
    <use
       x="0"
       y="0"
       xlink:href="#use4493"
       id="use4626"
       transform="translate(0,128)"
       width="256"
       height="256" />
    <use
       x="0"
       y="0"
       xlink:href="#use4495"
       id="use4628"
       transform="translate(0,128)"
       width="256"
       height="256" />
    <use
       x="0"
       y="0"
       xlink:href="#use4497"
       id="use4630"
       transform="translate(0,128)"
       width="256"
       height="256" />
    <use
       x="0"
       y="0"
       xlink:href="#use4499"
       id="use4632"
       transform="translate(0,128)"
       width="256"
       height="256" />
    <use
       x="0"
       y="0"
       xlink:href="#use4501"
       id="use4634"
       transform="translate(0,128)"
       width="256"
       height="256" />
    <use
       x="0"
       y="0"
       xlink:href="#use4503"
       id="use4636"
       transform="translate(0,128)"
       width="256"
       height="256" />
    <use
       x="0"
       y="0"
       xlink:href="#use4505"
       id="use4638"
       transform="translate(0,128)"
       width="256"
       height="256" />
    <use
       x="0"
       y="0"
       xlink:href="#use4507"
       id="use4640"
       transform="translate(0,128)"
       width="256"
       height="256" />
    <use
       x="0"
       y="0"
       xlink:href="#use4509"
       id="use4642"
       transform="translate(0,128)"
       width="256"
       height="256" />
    <use
       x="0"
       y="0"
       xlink:href="#use4511"
       id="use4644"
       transform="translate(0,128)"
       width="256"
       height="256" />
    <g
       id="g4722"
       transform="translate(11.457112,-313.47618)">
      <path
         sodipodi:nodetypes="ccccscccscccscccscccscccc"
         inkscape:connector-curvature="0"
         id="path4680-5-8"
         d="m 15.8125,1148.3622 c -0.815124,0.077 -1.548903,0.7063 -1.75,1.5 l -0.9375,3.5 -3.53125,-0.9375 c -0.8428161,-0.2276 -1.8144209,0.1729 -2.2521117,0.9282 -0.4376908,0.7554 -0.3019612,1.7975 0.3146117,2.4155 l 2.625,2.5938 -2.625,2.5937 c -0.6166721,0.618 -0.7524702,1.6602 -0.3147613,2.4156 0.437709,0.7554 1.4094074,1.1559 2.2522613,0.9282 l 3.53125,-0.9375 0.9375,3.5 c 0.218588,0.8523 1.057578,1.5033 1.9375,1.5033 0.879922,0 1.718912,-0.651 1.9375,-1.5033 l 0.9375,-3.5 3.53125,0.9375 c 0.842854,0.2277 1.814552,-0.1728 2.252261,-0.9282 0.437709,-0.7554 0.301911,-1.7976 -0.314761,-2.4156 l -2.625,-2.5937 2.625,-2.5938 c 0.616573,-0.618 0.752302,-1.6601 0.314612,-2.4155 -0.437691,-0.7553 -1.409296,-1.1558 -2.252112,-0.9282 l -3.53125,0.9375 -0.9375,-3.5 c -0.23195,-0.915 -1.185195,-1.5878 -2.125,-1.5 z"
         style="font-size:medium;font-style:normal;font-variant:normal;font-weight:normal;font-stretch:normal;text-indent:0;text-align:start;text-decoration:none;line-height:normal;letter-spacing:normal;word-spacing:normal;text-transform:none;direction:ltr;block-progression:tb;writing-mode:lr-tb;text-anchor:start;baseline-shift:baseline;color:#000000;fill:#000000;fill-opacity:1;fill-rule:evenodd;stroke:none;stroke-width:4;marker:none;visibility:visible;display:inline;overflow:visible;enable-background:accumulate;font-family:Sans;-inkscape-font-specification:Sans" />
      <path
         d="m 16,354 1.457111,5.47621 5.471092,-1.47621 -4.01398,4 4.01398,4 -5.471091,-1.47621 L 16,370 14.542889,364.52379 9.0717967,366 l 4.0139803,-4 -4.0139801,-4 5.4710911,1.47621 z"
         inkscape:randomized="0"
         inkscape:rounded="0"
         inkscape:flatsided="false"
         sodipodi:arg2="-1.0471976"
         sodipodi:arg1="-1.5707963"
         sodipodi:r2="2.9142232"
         sodipodi:r1="8"
         sodipodi:cy="362"
         sodipodi:cx="16"
         sodipodi:sides="6"
         id="path4680-5"
         style="color:#000000;fill:#ffffff;fill-opacity:1;fill-rule:evenodd;stroke:none;stroke-width:1;marker:none;visibility:visible;display:inline;overflow:visible;enable-background:accumulate"
         sodipodi:type="star"
         transform="translate(3.7455093e-8,796.36215)" />
    </g>
    <use
       x="0"
       y="0"
       xlink:href="#g4722"
       id="use4726"
       transform="translate(15.628665,5.4762084)"
       width="256"
       height="256" />
    <use
       x="0"
       y="0"
       xlink:href="#g4722"
       id="use4730"
       transform="translate(64,-1.5820313e-6)"
       width="256"
       height="256" />
    <use
       x="0"
       y="0"
       xlink:href="#use4726"
       id="use4732"
       transform="translate(64,-1.5820313e-6)"
       width="256"
       height="256" />
    <use
       x="0"
       y="0"
       xlink:href="#use4730"
       id="use4736"
       transform="translate(64,-1.5820313e-6)"
       width="256"
       height="256" />
    <use
       x="0"
       y="0"
       xlink:href="#use4732"
       id="use4738"
       transform="translate(64,-1.5820313e-6)"
       width="256"
       height="256" />
    <use
       x="0"
       y="0"
       xlink:href="#use4736"
       id="use4742"
       transform="translate(64,-1.5820313e-6)"
       width="256"
       height="256" />
    <use
       x="0"
       y="0"
       xlink:href="#use4738"
       id="use4744"
       transform="translate(64,-1.5820313e-6)"
       width="256"
       height="256" />
    <use
       x="0"
       y="0"
       xlink:href="#use4742"
       id="use4748"
       transform="translate(-192,63.999998)"
       width="256"
       height="256" />
    <use
       x="0"
       y="0"
       xlink:href="#use4744"
       id="use4750"
       transform="translate(-192,63.999998)"
       width="256"
       height="256" />
    <use
       x="0"
       y="0"
       xlink:href="#use4748"
       id="use4754"
       transform="translate(64,-1.5820313e-6)"
       width="256"
       height="256" />
    <use
       x="0"
       y="0"
       xlink:href="#use4750"
       id="use4756"
       transform="translate(64,-1.5820313e-6)"
       width="256"
       height="256" />
    <use
       x="0"
       y="0"
       xlink:href="#use4754"
       id="use4760"
       transform="translate(64,-1.5820313e-6)"
       width="256"
       height="256" />
    <use
       x="0"
       y="0"
       xlink:href="#use4756"
       id="use4762"
       transform="translate(64,-1.5820313e-6)"
       width="256"
       height="256" />
    <use
       x="0"
       y="0"
       xlink:href="#use4760"
       id="use4766"
       transform="translate(64,-1.5820313e-6)"
       width="256"
       height="256" />
    <use
       x="0"
       y="0"
       xlink:href="#use4762"
       id="use4768"
       transform="translate(64,-1.5820313e-6)"
       width="256"
       height="256" />
    <use
       x="0"
       y="0"
       xlink:href="#use4602"
       id="use4907"
       transform="translate(0,128)"
       width="256"
       height="256" />
    <use
       x="0"
       y="0"
       xlink:href="#use4604"
       id="use4909"
       transform="translate(0,128)"
       width="256"
       height="256" />
    <use
       x="0"
       y="0"
       xlink:href="#use4606"
       id="use4911"
       transform="translate(0,128)"
       width="256"
       height="256" />
    <use
       x="0"
       y="0"
       xlink:href="#use4608"
       id="use4913"
       transform="translate(0,128)"
       width="256"
       height="256" />
    <use
       x="0"
       y="0"
       xlink:href="#use4610"
       id="use4915"
       transform="translate(0,128)"
       width="256"
       height="256" />
    <use
       x="0"
       y="0"
       xlink:href="#use4612"
       id="use4917"
       transform="translate(0,128)"
       width="256"
       height="256" />
    <use
       x="0"
       y="0"
       xlink:href="#use4614"
       id="use4919"
       transform="translate(0,128)"
       width="256"
       height="256" />
    <use
       x="0"
       y="0"
       xlink:href="#use4616"
       id="use4921"
       transform="translate(0,128)"
       width="256"
       height="256" />
    <use
       x="0"
       y="0"
       xlink:href="#use4618"
       id="use4923"
       transform="translate(0,128)"
       width="256"
       height="256" />
    <use
       x="0"
       y="0"
       xlink:href="#use4620"
       id="use4925"
       transform="translate(0,128)"
       width="256"
       height="256" />
    <use
       x="0"
       y="0"
       xlink:href="#use4622"
       id="use4927"
       transform="translate(0,128)"
       width="256"
       height="256" />
    <use
       x="0"
       y="0"
       xlink:href="#use4624"
       id="use4929"
       transform="translate(0,128)"
       width="256"
       height="256" />
    <use
       x="0"
       y="0"
       xlink:href="#use4626"
       id="use4931"
       transform="translate(0,128)"
       width="256"
       height="256" />
    <use
       x="0"
       y="0"
       xlink:href="#use4628"
       id="use4933"
       transform="translate(0,128)"
       width="256"
       height="256" />
    <use
       x="0"
       y="0"
       xlink:href="#use4630"
       id="use4935"
       transform="translate(0,128)"
       width="256"
       height="256" />
    <use
       x="0"
       y="0"
       xlink:href="#use4632"
       id="use4937"
       transform="translate(0,128)"
       width="256"
       height="256" />
    <use
       x="0"
       y="0"
       xlink:href="#use4634"
       id="use4939"
       transform="translate(0,128)"
       width="256"
       height="256" />
    <use
       x="0"
       y="0"
       xlink:href="#use4636"
       id="use4941"
       transform="translate(0,128)"
       width="256"
       height="256" />
    <use
       x="0"
       y="0"
       xlink:href="#use4638"
       id="use4943"
       transform="translate(0,128)"
       width="256"
       height="256" />
    <use
       x="0"
       y="0"
       xlink:href="#use4640"
       id="use4945"
       transform="translate(0,128)"
       width="256"
       height="256" />
    <use
       x="0"
       y="0"
       xlink:href="#use4642"
       id="use4947"
       transform="translate(0,128)"
       width="256"
       height="256" />
    <use
       x="0"
       y="0"
       xlink:href="#use4644"
       id="use4949"
       transform="translate(0,128)"
       width="256"
       height="256" />
    <g
       id="g5007"
       transform="translate(0,-319.99997)">
      <path
         sodipodi:nodetypes="ccccccscccccc"
         inkscape:connector-curvature="0"
         id="path4983-9"
         d="m 46.214212,1281.1141 c -0.4119,-1.0299 -1.781803,-1.5432 -2.769056,-1.0373 l -16.351389,8.5224 c -0.981586,0.5129 -1.354994,1.924 -0.755528,2.8553 l 2.714385,4.0932 -6.780788,9.2256 c -0.515116,0.7222 -0.46608,1.7946 0.112922,2.4668 0.579002,0.6722 1.632373,0.8796 2.422945,0.4772 l 16.351388,-8.5225 c 0.981574,-0.5129 1.354891,-1.924 0.755432,-2.8552 l -2.722377,-4.1234 6.758643,-9.1874 c 0.402017,-0.5389 0.504957,-1.2872 0.263423,-1.9147 z"
         style="font-size:medium;font-style:normal;font-variant:normal;font-weight:normal;font-stretch:normal;text-indent:0;text-align:start;text-decoration:none;line-height:normal;letter-spacing:normal;word-spacing:normal;text-transform:none;direction:ltr;block-progression:tb;writing-mode:lr-tb;text-anchor:start;baseline-shift:baseline;color:#000000;fill:#000000;fill-opacity:1;fill-rule:nonzero;stroke:none;stroke-width:4;marker:none;visibility:visible;display:inline;overflow:visible;enable-background:accumulate;font-family:Sans;-inkscape-font-specification:Sans" />
      <path
         sodipodi:nodetypes="ccccccc"
         inkscape:connector-curvature="0"
         id="path4983"
         d="M 44.351389,1281.8397 28,1290.3622 l 3.484766,5.2779 -7.588706,10.3155 16.351389,-8.5224 -3.484766,-5.2779 z"
         style="fill:#ffffff;stroke:none" />
    </g>
    <use
       x="0"
       y="0"
       xlink:href="#g5007"
       id="use5040"
       transform="translate(64,-1.5820313e-6)"
       width="256"
       height="256" />
    <use
       x="0"
       y="0"
       xlink:href="#use5040"
       id="use5044"
       transform="translate(64,-1.5820313e-6)"
       width="256"
       height="256" />
    <use
       x="0"
       y="0"
       xlink:href="#use5044"
       id="use5048"
       transform="translate(64,-1.5820313e-6)"
       width="256"
       height="256" />
    <use
       x="0"
       y="0"
       xlink:href="#use5048"
       id="use5052"
       transform="translate(-192,63.999998)"
       width="256"
       height="256" />
    <use
       x="0"
       y="0"
       xlink:href="#use5052"
       id="use5056"
       transform="translate(64,-1.5820313e-6)"
       width="256"
       height="256" />
    <use
       x="0"
       y="0"
       xlink:href="#use5056"
       id="use5060"
       transform="translate(64,-1.5820313e-6)"
       width="256"
       height="256" />
    <use
       x="0"
       y="0"
       xlink:href="#use5060"
       id="use5064"
       transform="translate(64,-1.5820313e-6)"
       width="256"
       height="256" />
  </g>
</svg>
